<svg viewBox="0 0 1100 560" xmlns="http://www.w3.org/2000/svg" font-family="Inter,system-ui,sans-serif">
  <defs>
    <linearGradient id="dbg" x1="0" y1="0" x2="1" y2="1"><stop offset="0%" stop-color="#0a0a14"/><stop offset="100%" stop-color="#0e0e22"/></linearGradient>
    <linearGradient id="dg" x1="0" y1="0" x2="1" y2="0"><stop offset="0%" stop-color="#6366f1"/><stop offset="100%" stop-color="#14b8a6"/></linearGradient>
    <filter id="df"><feGaussianBlur stdDeviation="42"/></filter>
    <clipPath id="dclip"><rect width="1100" height="560" rx="14"/></clipPath>
  </defs>
  <g clip-path="url(#dclip)">
  <rect width="1100" height="560" fill="url(#dbg)"/>
  <ellipse cx="180" cy="200" rx="180" ry="150" fill="#6366f1" opacity="0.07" filter="url(#df)"/>
  <ellipse cx="960" cy="420" rx="160" ry="130" fill="#14b8a6" opacity="0.06" filter="url(#df)"/>
  <!-- Sidebar 188px wide -->
  <rect x="0" y="0" width="190" height="560" fill="rgba(9,11,26,0.96)" stroke="rgba(255,255,255,0.05)" stroke-width="1"/>
  <!-- Logo block -->
  <rect x="14" y="14" width="162" height="38" rx="10" fill="rgba(99,102,241,0.12)" stroke="rgba(99,102,241,0.3)" stroke-width="0.5"/>
  <rect x="22" y="21" width="24" height="24" rx="7" fill="url(#dg)"/>
  <text x="34" y="37" font-size="9" font-weight="800" text-anchor="middle" fill="white">DW</text>
  <text x="94" y="37" font-size="13" font-weight="700" fill="#f1f5f9">DebtWise</text>
  <!-- Active nav item -->
  <rect x="8" y="64" width="174" height="34" rx="8" fill="rgba(99,102,241,0.2)" stroke="rgba(99,102,241,0.3)" stroke-width="0.5"/>
  <text x="28" y="86" font-size="12" fill="white" font-weight="600">◈  Dashboard</text>
  <text x="28" y="120" font-size="12" fill="#64748b">⊞  My Debts</text>
  <text x="28" y="152" font-size="12" fill="#64748b">⚖  Know Rights</text>
  <text x="28" y="184" font-size="12" fill="#64748b">⏰  Deadlines</text>
  <text x="28" y="216" font-size="12" fill="#64748b">💬  AI Assistant</text>
  <!-- User block at bottom -->
  <rect x="8" y="504" width="174" height="44" rx="8" fill="rgba(255,255,255,0.04)"/>
  <rect x="18" y="514" width="24" height="24" rx="12" fill="url(#dg)"/>
  <text x="30" y="530" font-size="9" font-weight="700" text-anchor="middle" fill="white">A</text>
  <text x="52" y="524" font-size="11" fill="#94a3b8">Alex Rivera</text>
  <text x="52" y="538" font-size="9" fill="#475569">CA · Pro Plan</text>
  <!-- Top header bar -->
  <rect x="190" y="0" width="910" height="54" fill="rgba(9,11,26,0.92)" stroke="rgba(255,255,255,0.05)" stroke-width="1"/>
  <text x="212" y="30" font-size="19" font-weight="800" fill="#f8fafc">Welcome back, Alex</text>
  <text x="212" y="46" font-size="11" fill="#64748b">You have 2 active debts. · demo@debtwise.ai</text>
  <rect x="952" y="12" width="128" height="30" rx="9" fill="url(#dg)"/>
  <text x="1016" y="32" font-size="11" font-weight="700" text-anchor="middle" fill="white">+ Add Debt</text>
  <!-- 4 stat cards -->
  <rect x="208" y="68" width="172" height="74" rx="14" fill="rgba(17,25,40,0.75)" stroke="rgba(255,255,255,0.07)" stroke-width="0.5" opacity="0"><animate attributeName="opacity" values="0;1" dur="0.35s" fill="freeze" begin="0.1s"/></rect>
  <rect x="220" y="80" width="30" height="30" rx="9" fill="rgba(99,102,241,0.15)"/>
  <text x="235" y="100" font-size="15" text-anchor="middle">📋</text>
  <text x="259" y="95" font-size="9" fill="#64748b">ACTIVE DEBTS</text>
  <text x="259" y="124" font-size="28" font-weight="800" fill="#f8fafc">2</text>
  <rect x="392" y="68" width="172" height="74" rx="14" fill="rgba(17,25,40,0.75)" stroke="rgba(255,255,255,0.07)" stroke-width="0.5" opacity="0"><animate attributeName="opacity" values="0;1" dur="0.35s" fill="freeze" begin="0.18s"/></rect>
  <rect x="404" y="80" width="30" height="30" rx="9" fill="rgba(245,158,11,0.15)"/>
  <text x="419" y="100" font-size="15" text-anchor="middle">⏰</text>
  <text x="443" y="95" font-size="9" fill="#64748b">DEADLINES</text>
  <text x="443" y="124" font-size="28" font-weight="800" fill="#fbbf24">2</text>
  <rect x="576" y="68" width="172" height="74" rx="14" fill="rgba(17,25,40,0.75)" stroke="rgba(255,255,255,0.07)" stroke-width="0.5" opacity="0"><animate attributeName="opacity" values="0;1" dur="0.35s" fill="freeze" begin="0.26s"/></rect>
  <rect x="588" y="80" width="30" height="30" rx="9" fill="rgba(239,68,68,0.15)"/>
  <text x="603" y="100" font-size="15" text-anchor="middle">🚩</text>
  <text x="627" y="95" font-size="9" fill="#64748b">VIOLATIONS</text>
  <text x="627" y="124" font-size="28" font-weight="800" fill="#f87171">3</text>
  <rect x="760" y="68" width="330" height="74" rx="14" fill="rgba(17,25,40,0.75)" stroke="rgba(255,255,255,0.07)" stroke-width="0.5" opacity="0"><animate attributeName="opacity" values="0;1" dur="0.35s" fill="freeze" begin="0.34s"/></rect>
  <rect x="772" y="80" width="30" height="30" rx="9" fill="rgba(20,184,166,0.15)"/>
  <text x="787" y="100" font-size="15" text-anchor="middle">💰</text>
  <text x="811" y="95" font-size="9" fill="#64748b">POTENTIAL SAVINGS</text>
  <text x="811" y="124" font-size="26" font-weight="800" fill="#2dd4bf">$4,500+</text>
  <!-- Debt Card 1: Capital One $4785.43 — DISPUTED, 2 violations (exact seed) -->
  <rect x="208" y="156" width="542" height="106" rx="14" fill="rgba(17,25,40,0.75)" stroke="rgba(239,68,68,0.35)" stroke-width="0.8" opacity="0"><animate attributeName="opacity" values="0;1" dur="0.4s" fill="freeze" begin="0.44s"/></rect>
  <circle cx="256" cy="209" r="28" fill="none" stroke="rgba(255,255,255,0.05)" stroke-width="6"/>
  <circle cx="256" cy="209" r="28" fill="none" stroke="#f59e0b" stroke-width="6" stroke-linecap="round" stroke-dasharray="88 132" transform="rotate(-90 256 209)"/>
  <text x="256" y="214" font-size="13" font-weight="800" text-anchor="middle" fill="#f59e0b">35</text>
  <rect x="296" y="163" width="60" height="16" rx="8" fill="rgba(139,92,246,0.18)" stroke="rgba(139,92,246,0.4)" stroke-width="0.5"/>
  <text x="326" y="175" font-size="9" font-weight="700" text-anchor="middle" fill="#c4b5fd">DISPUTED</text>
  <rect x="366" y="163" width="84" height="16" rx="8" fill="rgba(239,68,68,0.18)" stroke="rgba(239,68,68,0.4)" stroke-width="0.5"/>
  <text x="408" y="175" font-size="9" font-weight="700" text-anchor="middle" fill="#f87171">2 violations</text>
  <text x="296" y="205" font-size="14" font-weight="700" fill="#f1f5f9">Capital One (Midland Credit Mgmt)</text>
  <text x="296" y="222" font-size="11" fill="#64748b">credit_card · acct ending 4321 · orig: $3,200.00</text>
  <text x="730" y="192" font-size="18" font-weight="800" text-anchor="end" fill="#f8fafc">$4,785.43</text>
  <text x="730" y="210" font-size="10" text-anchor="end" fill="#f59e0b">⏰ SOL: 2028-04-01 · 35 months remaining</text>
  <text x="730" y="226" font-size="10" text-anchor="end" fill="#64748b">§ 1692c(a)(1) · § 1692g</text>
  <rect x="296" y="234" width="246" height="18" rx="5" fill="rgba(245,158,11,0.1)" stroke="rgba(245,158,11,0.25)" stroke-width="0.5"/>
  <text x="306" y="247" font-size="9.5" fill="#fbbf24">⚠ 2 FDCPA violations · 1 active deadline</text>
  <text x="742" y="209" font-size="16" fill="#374151">→</text>
  <!-- Debt Card 2: Sutter Health $5400 — TIME-BARRED, 1 violation (exact seed) -->
  <rect x="208" y="274" width="542" height="106" rx="14" fill="rgba(17,25,40,0.75)" stroke="rgba(20,184,166,0.35)" stroke-width="0.8" opacity="0"><animate attributeName="opacity" values="0;1" dur="0.4s" fill="freeze" begin="0.58s"/></rect>
  <circle cx="256" cy="327" r="28" fill="none" stroke="rgba(255,255,255,0.05)" stroke-width="6"/>
  <circle cx="256" cy="327" r="28" fill="none" stroke="#14b8a6" stroke-width="6" stroke-linecap="round" stroke-dasharray="38 132" transform="rotate(-90 256 327)"/>
  <text x="256" y="332" font-size="13" font-weight="800" text-anchor="middle" fill="#14b8a6">15</text>
  <rect x="296" y="281" width="90" height="16" rx="8" fill="rgba(16,185,129,0.18)" stroke="rgba(16,185,129,0.4)" stroke-width="0.5"/>
  <text x="341" y="293" font-size="9" font-weight="700" text-anchor="middle" fill="#34d399">TIME-BARRED</text>
  <rect x="396" y="281" width="84" height="16" rx="8" fill="rgba(239,68,68,0.18)" stroke="rgba(239,68,68,0.4)" stroke-width="0.5"/>
  <text x="438" y="293" font-size="9" font-weight="700" text-anchor="middle" fill="#f87171">1 violation</text>
  <text x="296" y="323" font-size="14" font-weight="700" fill="#f1f5f9">Sutter Health (NCB Management)</text>
  <text x="296" y="340" font-size="11" fill="#64748b">medical · acct ending 8765 · last pmt: 2019-11-20</text>
  <text x="730" y="310" font-size="18" font-weight="800" text-anchor="end" fill="#f8fafc">$5,400.00</text>
  <text x="730" y="328" font-size="10" text-anchor="end" fill="#34d399">✓ SOL expired 2024-01-15 · Cannot be sued</text>
  <text x="730" y="344" font-size="10" text-anchor="end" fill="#64748b">§ 1692e Reg F — threatened lawsuit on time-barred</text>
  <rect x="296" y="352" width="250" height="18" rx="5" fill="rgba(16,185,129,0.1)" stroke="rgba(16,185,129,0.25)" stroke-width="0.5"/>
  <text x="306" y="365" font-size="9.5" fill="#34d399">✓ Time-barred · Cease &amp; Desist recommended</text>
  <text x="742" y="327" font-size="16" fill="#374151">→</text>
  <!-- Right panel — Deadlines -->
  <rect x="764" y="156" width="326" height="224" rx="14" fill="rgba(17,25,40,0.75)" stroke="rgba(255,255,255,0.07)" stroke-width="0.5" opacity="0"><animate attributeName="opacity" values="0;1" dur="0.4s" fill="freeze" begin="0.72s"/></rect>
  <text x="784" y="180" font-size="12" font-weight="700" fill="#f1f5f9">⏰ Urgent Deadlines</text>
  <rect x="776" y="188" width="302" height="52" rx="8" fill="rgba(239,68,68,0.1)" stroke="rgba(239,68,68,0.25)" stroke-width="0.5"/>
  <text x="790" y="205" font-size="9" font-weight="700" fill="#f87171">OVERDUE</text>
  <text x="1070" y="205" font-size="9" text-anchor="end" fill="#64748b">2024-02-09</text>
  <text x="790" y="221" font-size="11" fill="#e2e8f0">FDCPA 30-day dispute window</text>
  <text x="790" y="234" font-size="9" fill="#64748b">Capital One · Midland Credit Management</text>
  <rect x="776" y="246" width="302" height="52" rx="8" fill="rgba(245,158,11,0.1)" stroke="rgba(245,158,11,0.25)" stroke-width="0.5"/>
  <text x="790" y="263" font-size="9" font-weight="700" fill="#fbbf24">UPCOMING</text>
  <text x="1070" y="263" font-size="9" text-anchor="end" fill="#64748b">2024-03-01</text>
  <text x="790" y="279" font-size="11" fill="#e2e8f0">SOL reset risk — avoid any payment</text>
  <text x="790" y="292" font-size="9" fill="#64748b">Sutter Health · NCB Management</text>
  <rect x="776" y="304" width="302" height="34" rx="8" fill="rgba(99,102,241,0.1)" stroke="rgba(99,102,241,0.25)" stroke-width="0.5"/>
  <text x="927" y="325" font-size="11" font-weight="600" text-anchor="middle" fill="#818cf8">💬 Ask AI Assistant →</text>
  <!-- Bottom panels -->
  <rect x="208" y="392" width="542" height="60" rx="14" fill="rgba(17,25,40,0.75)" stroke="rgba(99,102,241,0.2)" stroke-width="0.5" opacity="0"><animate attributeName="opacity" values="0;1" dur="0.4s" fill="freeze" begin="0.84s"/></rect>
  <text x="228" y="416" font-size="13" font-weight="700" fill="#f1f5f9">💬  Need help negotiating?</text>
  <text x="228" y="434" font-size="11" fill="#64748b">Ask DebtWise AI about your rights, settlement offers, or what to say on the call.</text>
  <rect x="504" y="402" width="228" height="28" rx="8" fill="rgba(255,255,255,0.04)" stroke="rgba(255,255,255,0.07)" stroke-width="0.5"/>
  <text x="618" y="421" font-size="11" text-anchor="middle" fill="#64748b">Ask AI Assistant →</text>
  <rect x="764" y="392" width="326" height="60" rx="14" fill="rgba(17,25,40,0.75)" stroke="rgba(255,255,255,0.07)" stroke-width="0.5" opacity="0"><animate attributeName="opacity" values="0;1" dur="0.4s" fill="freeze" begin="0.92s"/></rect>
  <text x="784" y="416" font-size="12" font-weight="700" fill="#f1f5f9">Quick Actions</text>
  <text x="784" y="436" font-size="11" fill="#64748b">⚖ Know Rights  ·  📊 Analysis Guide  ·  ⭐ Upgrade</text>
  </g>
</svg>
