<svg viewBox="0 0 1100 520" xmlns="http://www.w3.org/2000/svg" font-family="Inter,system-ui,sans-serif">
  <defs>
    <linearGradient id="nbg" x1="0" y1="0" x2="1" y2="1"><stop offset="0%" stop-color="#0a0a14"/><stop offset="100%" stop-color="#0e0e22"/></linearGradient>
    <linearGradient id="ng" x1="0" y1="0" x2="1" y2="0"><stop offset="0%" stop-color="#6366f1"/><stop offset="100%" stop-color="#14b8a6"/></linearGradient>
    <filter id="nf"><feGaussianBlur stdDeviation="42"/></filter>
    <clipPath id="nclip"><rect width="1100" height="520" rx="14"/></clipPath>
  </defs>
  <g clip-path="url(#nclip)">
  <rect width="1100" height="520" fill="url(#nbg)"/>
  <ellipse cx="200" cy="150" rx="200" ry="160" fill="#6366f1" opacity="0.07" filter="url(#nf)"/>
  <ellipse cx="950" cy="400" rx="180" ry="140" fill="#14b8a6" opacity="0.06" filter="url(#nf)"/>
  <!-- Header -->
  <rect x="0" y="0" width="1100" height="52" fill="rgba(9,11,26,0.92)" stroke="rgba(255,255,255,0.05)" stroke-width="1"/>
  <rect x="16" y="13" width="26" height="26" rx="7" fill="url(#ng)"/>
  <text x="29" y="30" font-size="9" font-weight="800" text-anchor="middle" fill="white">DW</text>
  <text x="52" y="32" font-size="14" font-weight="700" fill="#f1f5f9">DebtWise</text>
  <text x="96" y="32" font-size="11" fill="#64748b">/ Capital One — Negotiation Wizard</text>
  <!-- 5-step progress bar — step 3 active -->
  <rect x="12" y="58" width="1076" height="34" rx="10" fill="rgba(255,255,255,0.03)"/>
  <rect x="20" y="63" width="118" height="24" rx="8" fill="rgba(20,184,166,0.2)" stroke="rgba(20,184,166,0.4)" stroke-width="0.5"/>
  <text x="79" y="79" font-size="10" font-weight="600" text-anchor="middle" fill="#2dd4bf">✓ Set Goal</text>
  <line x1="138" y1="75" x2="200" y2="75" stroke="rgba(20,184,166,0.4)" stroke-width="1"/>
  <rect x="202" y="63" width="162" height="24" rx="8" fill="rgba(20,184,166,0.2)" stroke="rgba(20,184,166,0.4)" stroke-width="0.5"/>
  <text x="283" y="79" font-size="10" font-weight="600" text-anchor="middle" fill="#2dd4bf">✓ Reality Check</text>
  <line x1="364" y1="75" x2="422" y2="75" stroke="rgba(99,102,241,0.5)" stroke-width="1"/>
  <rect x="424" y="63" width="114" height="24" rx="8" fill="url(#ng)"/>
  <text x="481" y="79" font-size="10" font-weight="700" text-anchor="middle" fill="white">3  Strategy</text>
  <line x1="538" y1="75" x2="600" y2="75" stroke="rgba(255,255,255,0.1)" stroke-width="1"/>
  <rect x="602" y="63" width="148" height="24" rx="8" fill="rgba(255,255,255,0.05)"/>
  <text x="676" y="79" font-size="10" font-weight="500" text-anchor="middle" fill="#64748b">4  Documents</text>
  <line x1="750" y1="75" x2="812" y2="75" stroke="rgba(255,255,255,0.07)" stroke-width="1"/>
  <rect x="814" y="63" width="148" height="24" rx="8" fill="rgba(255,255,255,0.05)"/>
  <text x="888" y="79" font-size="10" font-weight="500" text-anchor="middle" fill="#64748b">5  Execute &amp; Track</text>
  <!-- Strategy card -->
  <rect x="12" y="106" width="674" height="196" rx="14" fill="rgba(17,25,40,0.75)" stroke="rgba(255,255,255,0.07)" stroke-width="0.5" opacity="0"><animate attributeName="opacity" values="0;1" dur="0.4s" fill="freeze" begin="0.2s"/></rect>
  <text x="32" y="130" font-size="15" font-weight="700" fill="#f8fafc">Your Strategy</text>
  <text x="32" y="150" font-size="12" fill="#94a3b8">Goal: <tspan fill="#e2e8f0">full_settlement</tspan>  ·  Income: $3,800/mo  ·  Expenses: $2,950/mo  ·  Discretionary: $850/mo</text>
  <rect x="24" y="160" width="650" height="70" rx="10" fill="rgba(99,102,241,0.08)" stroke="rgba(99,102,241,0.2)" stroke-width="0.5"/>
  <text x="40" y="180" font-size="12" font-weight="600" fill="#f1f5f9">Recommended: Settlement with Violation Leverage</text>
  <text x="40" y="198" font-size="11" fill="#94a3b8">Open at <tspan fill="#f1f5f9" font-weight="600">$1,436</tspan> (30%). Midland Credit typically accepts 40–50%. Your 2 FDCPA violations (§ 1692c + § 1692g)</text>
  <text x="40" y="214" font-size="11" fill="#94a3b8">significantly strengthen your position. Require written settlement agreement before any payment.</text>
  <text x="40" y="228" font-size="10.5" fill="#f59e0b">⚠ Do NOT pay until Midland Credit sends a signed settlement agreement in writing.</text>
  <rect x="24" y="244" width="316" height="50" rx="10" fill="rgba(255,255,255,0.04)"/>
  <text x="40" y="262" font-size="9" fill="#64748b">OPENING OFFER</text>
  <text x="40" y="286" font-size="28" font-weight="800" fill="#f8fafc">$1,436</text>
  <text x="142" y="286" font-size="11" fill="#64748b">(30%)</text>
  <rect x="352" y="244" width="316" height="50" rx="10" fill="rgba(255,255,255,0.04)"/>
  <text x="368" y="262" font-size="9" fill="#64748b">WALKAWAY POSITION</text>
  <text x="368" y="286" font-size="28" font-weight="800" fill="#f1f5f9">$2,393</text>
  <text x="470" y="286" font-size="11" fill="#64748b">(50%)</text>
  <!-- Call Companion panel -->
  <rect x="12" y="314" width="674" height="190" rx="14" fill="rgba(17,25,40,0.75)" stroke="rgba(99,102,241,0.28)" stroke-width="0.8" opacity="0"><animate attributeName="opacity" values="0;1" dur="0.4s" fill="freeze" begin="0.5s"/></rect>
  <text x="32" y="338" font-size="13" font-weight="700" fill="#f1f5f9">📞 Live Call Companion</text>
  <rect x="198" y="326" width="88" height="18" rx="9" fill="rgba(16,185,129,0.18)" stroke="rgba(16,185,129,0.4)" stroke-width="0.5"/>
  <circle cx="213" cy="335" r="4" fill="#22c55e"><animate attributeName="opacity" values="1;0.2;1" dur="1.2s" repeatCount="indefinite"/></circle>
  <text x="258" y="339" font-size="9" font-weight="700" text-anchor="middle" fill="#34d399">LIVE</text>
  <rect x="24" y="350" width="650" height="54" rx="10" fill="rgba(99,102,241,0.12)" stroke="rgba(99,102,241,0.3)" stroke-width="0.5"/>
  <text x="40" y="368" font-size="11" font-weight="600" fill="#a5b4fc">💡 Suggested Response</text>
  <text x="40" y="388" font-size="13" font-weight="500" fill="#e2e8f0">"I need that in writing before I can agree to anything."</text>
  <text x="40" y="402" font-size="10" fill="#94a3b8">Never agree verbally. FDCPA requires all agreements in writing. Never provide bank info over the phone.</text>
  <rect x="24" y="412" width="558" height="28" rx="8" fill="rgba(255,255,255,0.05)" stroke="rgba(255,255,255,0.08)" stroke-width="0.5"/>
  <text x="40" y="430" font-size="11" fill="#475569">Type what the collector just said for real-time coaching…</text>
  <rect x="588" y="412" width="88" height="28" rx="8" fill="url(#ng)"/>
  <text x="632" y="430" font-size="11" font-weight="600" text-anchor="middle" fill="white">Send</text>
  <text x="24" y="462" font-size="10" fill="#475569">Socket.IO · call:join → call:transcript → call:suggestion · coaching informational only · 4 response patterns</text>
  <text x="24" y="478" font-size="10" fill="#475569">verbal agreement · validation refusal · lawsuit threats · bank info requests</text>
  <!-- Goals panel -->
  <rect x="700" y="106" width="388" height="398" rx="14" fill="rgba(17,25,40,0.75)" stroke="rgba(255,255,255,0.07)" stroke-width="0.5" opacity="0"><animate attributeName="opacity" values="0;1" dur="0.4s" fill="freeze" begin="0.7s"/></rect>
  <text x="720" y="130" font-size="13" font-weight="700" fill="#f1f5f9">NegotiationGoal enum</text>
  <rect x="712" y="140" width="364" height="46" rx="10" fill="rgba(16,185,129,0.12)" stroke="rgba(16,185,129,0.3)" stroke-width="0.5"/>
  <text x="732" y="160" font-size="15">💰</text>
  <text x="758" y="158" font-size="12" font-weight="600" fill="#f1f5f9">full_settlement</text>
  <text x="758" y="175" font-size="10" fill="#64748b">Lump-sum · 30–50% · currently selected</text>
  <rect x="1060" y="152" width="14" height="14" rx="7" fill="#22c55e"/>
  <rect x="712" y="194" width="364" height="46" rx="10" fill="rgba(255,255,255,0.03)" stroke="rgba(255,255,255,0.06)" stroke-width="0.5"/>
  <text x="732" y="214" font-size="15">📅</text>
  <text x="758" y="212" font-size="12" font-weight="500" fill="#cbd5e1">payment_plan</text>
  <text x="758" y="229" font-size="10" fill="#64748b">Monthly · interest-freeze · no-restart clause</text>
  <rect x="712" y="248" width="364" height="46" rx="10" fill="rgba(255,255,255,0.03)" stroke="rgba(255,255,255,0.06)" stroke-width="0.5"/>
  <text x="732" y="268" font-size="15">⚖</text>
  <text x="758" y="266" font-size="12" font-weight="500" fill="#cbd5e1">dispute_validity</text>
  <text x="758" y="283" font-size="10" fill="#64748b">Challenge amount, ownership, chain of custody</text>
  <rect x="712" y="302" width="364" height="46" rx="10" fill="rgba(255,255,255,0.03)" stroke="rgba(255,255,255,0.06)" stroke-width="0.5"/>
  <text x="732" y="322" font-size="15">🛑</text>
  <text x="758" y="320" font-size="12" font-weight="500" fill="#cbd5e1">cease_and_desist</text>
  <text x="758" y="337" font-size="10" fill="#64748b">§ 1692c(c) · stop all contact legally</text>
  <rect x="712" y="356" width="364" height="46" rx="10" fill="rgba(255,255,255,0.03)" stroke="rgba(255,255,255,0.06)" stroke-width="0.5"/>
  <text x="732" y="376" font-size="15">🛡️</text>
  <text x="758" y="374" font-size="12" font-weight="500" fill="#cbd5e1">statute_defense</text>
  <text x="758" y="391" font-size="10" fill="#64748b">Time-barred · Sutter Health · SOL expired</text>
  <rect x="712" y="410" width="364" height="46" rx="10" fill="rgba(255,255,255,0.03)" stroke="rgba(255,255,255,0.06)" stroke-width="0.5"/>
  <text x="732" y="430" font-size="15">🚩</text>
  <text x="758" y="428" font-size="12" font-weight="500" fill="#cbd5e1">violation_leverage</text>
  <text x="758" y="445" font-size="10" fill="#64748b">§ 1692c + § 1692g · $1,000/violation § 1692k</text>
  </g>
</svg>
